<?xml version="1.0" standalone="no"?>
<!DOCTYPE svg PUBLIC "-//W3C//DTD SVG 20010904//EN"
 "http://www.w3.org/TR/2001/REC-SVG-20010904/DTD/svg10.dtd">
<svg version="1.0" xmlns="http://www.w3.org/2000/svg"
 width="512.000000pt" height="512.000000pt" viewBox="0 0 512.000000 512.000000"
 preserveAspectRatio="xMidYMid meet">

<g transform="translate(0.000000,512.000000) scale(0.100000,-0.100000)"
fill="#000000" stroke="none">
<path d="M2440 4244 c-73 -15 -212 -71 -274 -111 -93 -60 -220 -189 -279 -284
-84 -136 -136 -312 -137 -466 l0 -71 -202 -4 c-230 -4 -245 -8 -329 -90 -66
-65 -92 -126 -97 -228 -5 -129 134 -1912 155 -1975 19 -57 96 -140 156 -169
21 -9 66 -22 100 -27 98 -15 2092 -7 2139 9 94 32 185 124 207 210 15 59 153
1858 149 1952 -2 70 -8 95 -33 144 -31 61 -83 113 -150 149 -37 20 -57 22
-241 25 l-201 3 -6 112 c-11 243 -109 446 -298 621 -89 82 -167 129 -279 168
-75 27 -101 31 -220 33 -74 2 -146 1 -160 -1z m248 -395 c94 -25 140 -51 212
-121 101 -96 158 -216 168 -345 l5 -73 -497 0 -496 0 0 54 c0 116 68 263 166
359 66 64 130 102 217 127 83 24 133 24 225 -1z m-293 -1108 c33 -15 85 -48
116 -73 l55 -45 44 39 c57 49 149 95 221 109 45 9 67 8 118 -5 200 -51 343
-250 344 -476 0 -41 -3 -90 -7 -107 l-8 -33 -193 0 -193 0 -41 -117 c-56 -159
-60 -167 -60 -123 0 19 -6 169 -13 334 -9 232 -15 299 -25 303 -8 3 -17 3 -20
0 -3 -4 -31 -111 -62 -239 l-56 -232 -50 62 c-28 34 -57 60 -65 59 -8 -1 -46
-74 -89 -169 -41 -92 -76 -166 -78 -164 -2 1 -9 155 -17 340 -8 186 -17 341
-20 343 -19 19 -37 -28 -85 -223 -30 -121 -56 -223 -59 -228 -2 -4 -13 6 -24
23 l-20 31 -128 0 -128 0 -6 26 c-13 50 -7 198 10 254 26 90 73 167 139 228
129 121 259 148 400 83z m-110 -738 l8 -222 25 2 c24 2 34 20 106 180 44 97
82 177 85 176 3 0 28 -27 54 -60 27 -32 55 -59 62 -59 8 0 27 59 56 175 24 96
46 175 49 175 3 0 11 -138 18 -307 7 -168 14 -308 17 -311 16 -17 39 26 90
175 32 92 61 171 65 176 3 4 84 6 179 5 l173 -3 -51 -100 c-59 -119 -155 -239
-278 -348 -86 -76 -258 -202 -339 -248 l-41 -23 -69 44 c-189 118 -390 292
-492 424 -48 62 -132 216 -132 241 0 12 20 15 109 15 l109 0 29 -45 c16 -26
34 -44 43 -43 11 2 28 56 60 182 l45 178 7 -78 c3 -44 9 -179 13 -301z"/>
</g>
</svg>
